# xmcd CD database file
#
# Track frame offsets:
#	150
#	16430
#	31059
#	51051
#	70595
#	83931
#	98266
#	110399
#	125118
#	144995
#	158242
#	176058
#	192134
#	208594
#	226641
#	241629
#
# Disc length: 3373 seconds
#
# Revision: 1
# Processed by: cddbd v1.5.2PL0 Copyright (c) Steve Scherf et al.
# Submitted via: CDex 1.70beta2
#
DISCID=c00d2b10
DTITLE=陳一郎 - 陳一郎 台語原聲紀念專輯 CD2 (鄉城唱片 CT-9118)
DYEAR=2001
DGENRE=Pop
TTITLE0=陳一郎 - 漂浪之女
TTITLE1=陳一郎 - 哀愁的火車站
TTITLE2=陳一郎 - 男性純情曲
TTITLE3=陳一郎 - 船過水無痕
TTITLE4=陳一郎 - 愛一斤值多少
TTITLE5=陳一郎 - 舞女
TTITLE6=陳一郎 - 酒場情話
TTITLE7=陳一郎 - 一支小雨傘
TTITLE8=陳一郎 - 毛毛雨
TTITLE9=陳一郎 - 香港戀情
TTITLE10=陳一郎 - 心所愛的人
TTITLE11=陳一郎 - 愛你入骨
TTITLE12=陳一郎 - 假情假愛
TTITLE13=陳一郎 - 故鄉的月
TTITLE14=陳一郎 - 夜港邊
TTITLE15=陳一郎 - 一見鍾情
EXTD=YEAR: 2001
EXTT0=
EXTT1=
EXTT2=
EXTT3=
EXTT4=
EXTT5=
EXTT6=
EXTT7=
EXTT8=
EXTT9=
EXTT10=
EXTT11=
EXTT12=
EXTT13=
EXTT14=
EXTT15=
PLAYORDER=
